<?xml version="1.0" encoding="UTF-8"?>
<svg width="128pt" height="128pt" version="1.1" viewBox="0 0 128 128" xmlns="http://www.w3.org/2000/svg">
 <path d="m96 64c0 17.672-14.328 32-32 32s-32-14.328-32-32 14.328-32 32-32 32 14.328 32 32z" fill="#fff"/>
 <path d="m64 28c1.0625 0 2.0781-0.42188 2.8281-1.1719s1.1719-1.7656 1.1719-2.8281v-12c0-2.2109-1.7891-4-4-4s-4 1.7891-4 4v12c0 1.0625 0.42188 2.0781 1.1719 2.8281s1.7656 1.1719 2.8281 1.1719z" fill="#fff"/>
 <path d="m64 100c-2.2109 0-4 1.7891-4 4v12c0 2.2109 1.7891 4 4 4s4-1.7891 4-4v-12c0-1.0625-0.42188-2.0781-1.1719-2.8281s-1.7656-1.1719-2.8281-1.1719z" fill="#fff"/>
 <path d="m116 60h-12c-2.2109 0-4 1.7891-4 4s1.7891 4 4 4h12c2.2109 0 4-1.7891 4-4s-1.7891-4-4-4z" fill="#fff"/>
 <path d="m28 64c0-1.0625-0.42188-2.0781-1.1719-2.8281s-1.7656-1.1719-2.8281-1.1719h-12c-2.2109 0-4 1.7891-4 4s1.7891 4 4 4h12c1.0625 0 2.0781-0.42188 2.8281-1.1719s1.1719-1.7656 1.1719-2.8281z" fill="#fff"/>
 <path d="m32.887 38.543c1.5703 1.5156 4.0625 1.4922 5.6055-0.050781 1.543-1.543 1.5664-4.0352 0.050781-5.6055l-8.4844-8.4844c-1.5703-1.5156-4.0664-1.4961-5.6094 0.046875s-1.5625 4.0391-0.046875 5.6094z" fill="#fff"/>
 <path d="m95.113 89.457c-1.5703-1.5156-4.0625-1.4922-5.6055 0.050781-1.543 1.543-1.5664 4.0352-0.050781 5.6055l8.4844 8.4844c1.5703 1.5156 4.0664 1.4961 5.6094-0.046875s1.5625-4.0391 0.046875-5.6094z" fill="#fff"/>
 <path d="m92.285 39.715c1.0625 0 2.0781-0.42188 2.8281-1.1719l8.4844-8.4844c0.77344-0.74609 1.2109-1.7695 1.2227-2.8438 0.007813-1.0703-0.41406-2.1016-1.1719-2.8633-0.76172-0.75781-1.793-1.1797-2.8633-1.1719-1.0742 0.011718-2.0977 0.44922-2.8438 1.2227l-8.4844 8.4844c-1.1445 1.1445-1.4844 2.8633-0.86719 4.3594 0.62109 1.4922 2.0781 2.4688 3.6953 2.4688z" fill="#fff"/>
 <path d="m32.887 89.457-8.4844 8.4844c-0.77344 0.74609-1.2109 1.7695-1.2227 2.8438-0.007813 1.0703 0.41406 2.1016 1.1719 2.8633 0.76172 0.75781 1.793 1.1797 2.8633 1.1719 1.0742-0.011718 2.0977-0.44922 2.8438-1.2227l8.4844-8.4844c1.5156-1.5703 1.4922-4.0625-0.050781-5.6055-1.543-1.543-4.0352-1.5664-5.6055-0.050781z" fill="#fff"/>
</svg>
