<?xml version="1.0" encoding="UTF-8"?>
<svg width="128pt" height="128pt" version="1.1" viewBox="0 0 128 128" xmlns="http://www.w3.org/2000/svg">
 <path d="m73.922 9.6016c2.4766 0 4.4805 2.0039 4.4805 4.4805v9.3711c0 2.4766-2.0039 4.4805-4.4805 4.4805s-4.4805-2.0039-4.4805-4.4805v-9.3711c0-2.4766 2.0039-4.4805 4.4805-4.4805z" fill="#fff"/>
 <path d="m50.672 48.125c9.5156 2.5664 17.629 8.4766 22.902 16.398h4.8281c6.3516 0 12.266 1.9336 17.156 5.2539 2.1289-3.6758 3.3516-7.9453 3.3516-12.5 0-13.801-11.184-24.984-24.984-24.984-10.566 0-19.598 6.5586-23.25 15.828z" fill="#fff"/>
 <path d="m107.64 29.898c1.75-1.75 1.75-4.5859 0-6.3359s-4.5859-1.75-6.3359 0l-6.625 6.625c-1.75 1.75-1.75 4.5859 0 6.3359s4.5859 1.75 6.3359 0z" fill="#fff"/>
 <path d="m121.6 57.281c0 2.4766-2.0039 4.4805-4.4805 4.4805h-9.3711c-2.4766 0-4.4805-2.0039-4.4805-4.4805s2.0039-4.4805 4.4805-4.4805h9.3711c2.4766 0 4.4805 2.0039 4.4805 4.4805z" fill="#fff"/>
 <path d="m46.832 36.523c1.75 1.75 4.5859 1.75 6.3359 0s1.75-4.5859 0-6.3359l-6.625-6.625c-1.75-1.75-4.5859-1.75-6.3359 0s-1.75 4.5859 0 6.3359z" fill="#fff"/>
 <path d="m40 53.121c13.055 0 24.375 7.2344 29.934 17.805h8.4648c13.254 0 24 10.625 24 23.734s-10.746 23.738-24 23.738h-38.398c-18.555 0-33.602-14.613-33.602-32.641 0-18.023 15.047-32.641 33.602-32.641z" fill="#fff"/>
</svg>
