<?xml version="1.0" encoding="UTF-8"?>
<svg width="128pt" height="128pt" version="1.1" viewBox="0 0 128 128" xmlns="http://www.w3.org/2000/svg">
 <path d="m89.617 15.18-3.4805-0.51172-1.5547-3.1484c-0.21875-0.43359-0.82031-0.43359-1.0352 0l-1.5586 3.1484-3.4805 0.51172c-0.47656 0.066406-0.66406 0.65625-0.32031 0.98437l2.5195 2.4609-0.58984 3.4688c-0.074219 0.47656 0.41016 0.82812 0.82812 0.61328l3.1094-1.6406 3.1094 1.6406c0.42188 0.21875 0.92188-0.14062 0.82813-0.61328l-0.58984-3.4688 2.5195-2.4609c0.35547-0.32812 0.16016-0.90625-0.30859-0.98437z" fill="#fff"/>
 <path d="m78.016 87.887c-1.0586 0-1.9219 0.85938-1.9219 1.9219v2.8789h-2.8789c-1.0586 0-1.9219 0.85938-1.9219 1.9219 0 1.0586 0.85938 1.9219 1.9219 1.9219h2.8789v2.8789c0 1.0586 0.85938 1.9219 1.9219 1.9219 1.0586 0 1.9219-0.85938 1.9219-1.9219v-2.8789h2.8789c1.0586 0 1.9219-0.85938 1.9219-1.9219 0-1.0586-0.85938-1.9219-1.9219-1.9219h-2.8789v-2.8789c0-1.0664-0.87109-1.9219-1.9219-1.9219z" fill="#fff"/>
 <path d="m21.859 78.18v-3.5352c0-0.47656-0.38672-0.85938-0.85938-0.85938-0.47656 0-0.85938 0.38672-0.85938 0.85938v3.5352c0 0.47656 0.38672 0.85937 0.85938 0.85937 0.48047 0 0.85938-0.38672 0.85938-0.85937z" fill="#fff"/>
 <path d="m20.16 80.781v3.5352c0 0.47656 0.38672 0.85938 0.85938 0.85938 0.47656 0 0.85938-0.38672 0.85938-0.85938v-3.5352c0-0.47656-0.38672-0.85938-0.85938-0.85938-0.47656 0.003906-0.85938 0.38672-0.85938 0.85938z" fill="#fff"/>
 <path d="m25.844 80.336c0.47656 0 0.85938-0.38672 0.85938-0.85938 0-0.47656-0.38672-0.85937-0.85938-0.85937h-3.5352c-0.47656 0-0.85938 0.38672-0.85938 0.85937 0 0.47656 0.38672 0.85938 0.85938 0.85938z" fill="#fff"/>
 <path d="m16.18 80.336h3.5352c0.47656 0 0.85938-0.38672 0.85938-0.85938 0-0.47656-0.38672-0.85937-0.85938-0.85937h-3.5352c-0.47656 0-0.85938 0.38672-0.85938 0.85937 0 0.47656 0.38672 0.85938 0.85938 0.85938z" fill="#fff"/>
 <path d="m63.539 13.031c-0.15625-0.46094-0.55078-0.79688-1.0352-0.87109l-2.1992-0.32031-0.98438-1.9961c-0.21875-0.43359-0.66406-0.71484-1.1484-0.71484s-0.93359 0.28125-1.1484 0.71484l-0.98438 1.9961-2.1992 0.32031c-0.48438 0.066406-0.88672 0.41016-1.0352 0.87109-0.15625 0.46094-0.023438 0.97656 0.32031 1.3203l1.5859 1.5508-0.37109 2.1914c-0.074219 0.48438 0.11328 0.96094 0.51172 1.2539 0.39453 0.28125 0.92188 0.32031 1.3438 0.10156l1.9688-1.0352 1.9688 1.0352c0.19141 0.10156 0.39453 0.15625 0.60156 0.15625 0.26953 0 0.52344-0.074219 0.75391-0.24609 0.39453-0.28125 0.58984-0.76953 0.51172-1.2539l-0.37109-2.1914 1.5859-1.5508c0.35547-0.35547 0.48438-0.87109 0.32812-1.3281zm-4.1836 1.5c-0.30469 0.29688-0.43359 0.71484-0.37109 1.125l0.050781 0.29688-0.26953-0.14062c-0.37109-0.19141-0.82031-0.19141-1.1914 0l-0.26953 0.14062 0.050781-0.29688c0.074219-0.41016-0.066407-0.84375-0.37109-1.125l-0.21875-0.21875 0.29688-0.039062c0.42188-0.066407 0.78125-0.32031 0.96094-0.70313l0.14062-0.26953 0.12891 0.26953c0.19141 0.37109 0.55078 0.64063 0.96094 0.70313l0.29688 0.039062z" fill="#fff"/>
 <path d="m62.703 22.77c-12.363 0-22.441 12.734-22.441 28.391 0 12.391 6.3984 23.309 15.551 27.035l-1.1016 1.9062c-0.65625 1.1133-0.65625 2.4453-0.015626 3.5586 0.64063 1.1133 1.8281 1.7891 3.1016 1.7891h2.9805v31.5c0 1.0586 0.87109 1.9219 1.9219 1.9219 1.0586 0 1.9219-0.85938 1.9219-1.9219l0.003906-31.496h2.9961c1.2969 0 2.4453-0.66406 3.1016-1.7891 0.64062-1.1133 0.64062-2.4453-0.015625-3.5586l-1.1016-1.9062c9.1484-3.7266 15.551-14.645 15.551-27.035 0.003906-15.66-10.07-28.395-22.449-28.395zm-3.1602 9.5742c-1.4102 0.29688-3.4805 1-5.3984 2.6992-2.5352 2.2266-3.4297 4.9883-3.7383 6.4414-0.12891 0.625-0.67969 1.0508-1.2969 1.0508-0.089844 0-0.19141-0.015625-0.28125-0.023437-0.71484-0.16406-1.1914-0.87109-1.0234-1.5859 0.37109-1.7656 1.4688-5.1367 4.5703-7.8867 2.3555-2.0859 4.8984-2.9531 6.6289-3.3164 0.71484-0.14062 1.4336 0.32031 1.5742 1.0352 0.15625 0.73047-0.32031 1.4297-1.0352 1.5859z" fill="#fff"/>
 <path d="m30.004 72.91-1.1016 1.8945c-0.64062 1.1133-0.64062 2.4453 0 3.5703 0.64062 1.1016 1.8203 1.7891 3.1016 1.7891h2.9805v31.5c0 1.0586 0.85938 1.9219 1.9219 1.9219 1.0586 0 1.9219-0.85938 1.9219-1.9219v-31.5h2.9805c1.2812 0 2.4609-0.69141 3.1016-1.7891 0.64062-1.125 0.64062-2.4609 0-3.5586l-1.1016-1.9062c0.43359-0.17969 0.87109-0.38672 1.2969-0.60156-4.4141-5.4414-7.0664-12.98-7.0664-21.145 0-11.199 4.9883-20.98 12.34-26.02 0.58984-0.41016 0.71484-1.2539 0.20312-1.7539-3.7891-3.6836-8.5234-5.8984-13.672-5.8984-12.379 0-22.449 12.734-22.449 28.391-0.011719 12.387 6.4062 23.305 15.547 27.031zm-7.6562-38.031c-0.089844 0-0.19141-0.015625-0.28125-0.023437-0.71484-0.16406-1.1914-0.87109-1.0234-1.5859 0.37109-1.7656 1.4688-5.1367 4.5703-7.8867 2.3555-2.0859 4.8984-2.9531 6.6289-3.3164 0.71484-0.14062 1.4336 0.32031 1.5742 1.0352 0.16406 0.71484-0.30469 1.4336-1.0234 1.5742-1.4102 0.29688-3.4805 1-5.3984 2.6992-2.5352 2.2266-3.4297 4.9883-3.7383 6.4414-0.14062 0.64062-0.69141 1.0586-1.3047 1.0586z" fill="#fff"/>
 <path d="m91.102 27.012c-3.2891 0-6.4141 0.91016-9.2148 2.5195-0.69141 0.39453-0.88672 1.3047-0.42188 1.9609 3.7109 5.2344 5.9805 12.121 5.9805 19.66 0 9.9688-3.9414 19.012-10.238 24.434-0.60156 0.51172-0.65625 1.4102-0.089843 1.9688 2.0859 2.125 4.4805 3.7891 7.1133 4.8516l-1.1016 1.9062c-0.65625 1.1133-0.65625 2.4453-0.015625 3.5703 0.64062 1.1016 1.8281 1.7891 3.1016 1.7891h2.9805v18.961c0 1.0586 0.85938 1.9219 1.9219 1.9219 1.0586 0 1.9219-0.85938 1.9219-1.9219l-0.003906-15.379v-3.5586h2.8398c1.1484 0 2.2891-0.48437 2.9805-1.4102 0.89453-1.2031 0.98438-2.7148 0.25391-3.9531l-1.1016-1.9062c9.1484-3.7109 15.551-14.629 15.551-27.035-0.003906-15.656-10.078-28.375-22.453-28.375zm14.066 19.199c-0.089844 0.015624-0.19141 0.023437-0.28125 0.023437-0.61328 0-1.1641-0.42188-1.2969-1.0508-0.30469-1.4453-1.2031-4.2109-3.7383-6.4414-1.9062-1.6992-3.9961-2.4062-5.3984-2.6992-0.71484-0.14062-1.1914-0.85938-1.0234-1.5742 0.14062-0.71484 0.85937-1.1914 1.5742-1.0352 1.7305 0.35938 4.2734 1.2305 6.6289 3.3164 3.1016 2.75 4.1992 6.1211 4.5703 7.8867 0.15625 0.70312-0.30469 1.4219-1.0352 1.5742z" fill="#fff"/>
</svg>
