<?xml version="1.0" encoding="UTF-8"?>
<svg id="rr-logo" xmlns="http://www.w3.org/2000/svg" viewBox="0 0 571.76 533.35">
  <defs>
    <style>
      .cls-1 {
        fill: #6272a5;
      }

      .cls-2 {
        fill: #7ec46a;
      }
    </style>
  </defs>
  <g>
    <rect class="cls-1" x="257.26" y="93.41" width="21.63" height="43.01" rx="10.81" ry="10.81"/>
    <rect class="cls-1" x="257.26" y="114.91" width="21.63" height="21.5" rx="10.33" ry="10.33"/>
    <rect class="cls-1" x="235.63" y="136.41" width="21.63" height="42.54" rx="10.81" ry="10.81"/>
    <rect class="cls-1" x="235.63" y="157.45" width="21.63" height="21.5" rx="10.33" ry="10.33"/>
    <rect class="cls-1" x="214.6" y="178.95" width="21.63" height="21.5" rx="10.33" ry="10.33"/>
    <rect class="cls-1" x="278.88" y="71.9" width="21.63" height="21.5" rx="10.33" ry="10.33"/>
    <rect class="cls-1" x="257.26" y="28.9" width="21.63" height="43.01" rx="10.81" ry="10.81"/>
    <rect class="cls-1" x="257.26" y="50.4" width="21.63" height="21.5" rx="10.33" ry="10.33"/>
    <rect class="cls-1" x="235.63" y="28.9" width="43.26" height="21.5" rx="10.75" ry="10.75"/>
    <rect class="cls-1" x="214.6" y="50.4" width="21.63" height="21.5" rx="10.33" ry="10.33"/>
    <rect class="cls-1" x="192.97" y="71.9" width="21.63" height="21.5" rx="10.33" ry="10.33"/>
    <rect class="cls-1" x="171.34" y="93.25" width="21.63" height="42.54" rx="10.81" ry="10.81"/>
    <rect class="cls-1" x="171.34" y="114.28" width="21.63" height="21.5" rx="10.33" ry="10.33"/>
    <rect class="cls-1" x="149.71" y="135.79" width="21.63" height="21.5" rx="10.33" ry="10.33"/>
    <rect class="cls-1" x="149.71" y="135.79" width="21.63" height="42.54" rx="10.81" ry="10.81"/>
    <rect class="cls-1" x="171.34" y="178.33" width="21.63" height="21.5" rx="10.33" ry="10.33"/>
    <rect class="cls-1" x="192.97" y="199.83" width="21.63" height="21.5" rx="10.33" ry="10.33"/>
    <rect class="cls-1" x="256.96" y="199.83" width="21.63" height="21.5" rx="10.33" ry="10.33"/>
    <rect class="cls-1" x="235.92" y="199.83" width="42.66" height="21.5" rx="10.75" ry="10.75"/>
    <rect class="cls-1" x="299.85" y="178.33" width="21.63" height="21.5" rx="10.33" ry="10.33"/>
    <rect class="cls-1" x="278.81" y="178.33" width="42.66" height="21.5" rx="10.75" ry="10.75"/>
    <rect class="cls-1" x="321.35" y="157.45" width="21.63" height="21.5" rx="10.33" ry="10.33"/>
    <rect class="cls-1" x="321.35" y="135.82" width="21.63" height="43.13" rx="10.81" ry="10.81"/>
    <path class="cls-1" d="M310.79,114.19h.96c5.71,0,10.33,4.63,10.33,10.33v.83c0,5.71-4.63,10.33-10.33,10.33h-.96c-5.71,0-10.33-4.63-10.33-10.33"/>
    <rect class="cls-1" x="149.71" y="28.9" width="21.63" height="21.5" rx="10.33" ry="10.33"/>
    <rect class="cls-1" x="171.34" y="50.4" width="21.63" height="21.5" rx="10.33" ry="10.33"/>
    <rect class="cls-1" x="128.09" y="7.55" width="21.63" height="21.5" rx="10.33" ry="10.33"/>
    <rect class="cls-1" x="106.46" y="28.9" width="21.63" height="21.5" rx="10.33" ry="10.33"/>
    <rect class="cls-1" x="84.83" y="50.09" width="21.63" height="42.54" rx="10.81" ry="10.81"/>
    <rect class="cls-1" x="84.83" y="71.12" width="21.63" height="21.5" rx="10.33" ry="10.33"/>
    <rect class="cls-1" x="106.46" y="92.63" width="21.63" height="42.54" rx="10.81" ry="10.81"/>
    <rect class="cls-1" x="106.46" y="113.66" width="21.63" height="21.5" rx="10.33" ry="10.33"/>
    <rect class="cls-1" x="85.26" y="135.23" width="21.63" height="21.5" rx="10.33" ry="10.33"/>
    <rect class="cls-1" x="64.22" y="135.23" width="42.66" height="21.5" rx="10.75" ry="10.75"/>
    <rect class="cls-1" x="42.72" y="156.82" width="21.63" height="21.5" rx="10.33" ry="10.33"/>
    <rect class="cls-1" x="21.69" y="156.82" width="42.66" height="21.5" rx="10.75" ry="10.75"/>
    <rect class="cls-1" x=".18" y="178.45" width="21.63" height="21.5" rx="10.33" ry="10.33"/>
    <rect class="cls-1" x="21.69" y="200.08" width="21.63" height="21.5" rx="10.33" ry="10.33"/>
    <rect class="cls-1" x="42.95" y="221.71" width="42.66" height="21.5" rx="10.75" ry="10.75"/>
    <rect class="cls-1" x="42.95" y="221.71" width="21.63" height="21.5" rx="10.33" ry="10.33"/>
    <rect class="cls-1" x="85.49" y="243.34" width="42.66" height="21.5" rx="10.75" ry="10.75"/>
    <rect class="cls-1" x="85.49" y="243.34" width="21.63" height="21.5" rx="10.33" ry="10.33"/>
    <rect class="cls-1" x="128.03" y="221.71" width="21.63" height="21.5" rx="10.33" ry="10.33"/>
    <rect class="cls-1" x="85.49" y="243.34" width="21.63" height="43.13" rx="10.81" ry="10.81"/>
    <rect class="cls-1" x="171.34" y="221.39" width="21.63" height="21.5" rx="10.33" ry="10.33"/>
    <rect class="cls-1" x="149.71" y="243.34" width="21.63" height="21.5" rx="10.33" ry="10.33"/>
    <rect class="cls-1" x="43.19" y="286.59" width="42.66" height="21.5" rx="10.75" ry="10.75"/>
    <rect class="cls-1" x="43.19" y="286.59" width="21.63" height="43.13" rx="10.81" ry="10.81"/>
    <rect class="cls-1" x="43.19" y="308.22" width="21.63" height="21.5" rx="10.33" ry="10.33"/>
    <rect class="cls-1" x="64.46" y="329.85" width="42.66" height="21.5" rx="10.75" ry="10.75"/>
    <rect class="cls-1" x="64.46" y="329.85" width="21.63" height="21.5" rx="10.33" ry="10.33"/>
    <rect class="cls-1" x="106.53" y="308.22" width="21.63" height="21.5" rx="10.33" ry="10.33"/>
    <rect class="cls-1" x="128.45" y="286.59" width="42.66" height="21.5" rx="10.75" ry="10.75"/>
    <rect class="cls-1" x="128.45" y="286.59" width="21.63" height="21.5" rx="10.33" ry="10.33"/>
    <rect class="cls-1" x="170.98" y="264.97" width="21.63" height="21.5" rx="10.33" ry="10.33"/>
    <rect class="cls-1" x="213.94" y="243.34" width="21.63" height="21.5" rx="10.33" ry="10.33"/>
    <rect class="cls-1" x="192.91" y="243.34" width="42.66" height="21.5" rx="10.75" ry="10.75"/>
    <rect class="cls-1" x="235.92" y="199.83" width="21.63" height="43.07" rx="10.81" ry="10.81"/>
    <rect class="cls-1" x="278.81" y="286.59" width="21.63" height="21.5" rx="10.33" ry="10.33"/>
    <rect class="cls-1" x="235.69" y="264.97" width="21.63" height="43.13" rx="10.81" ry="10.81"/>
    <rect class="cls-1" x="235.69" y="286.59" width="21.63" height="21.5" rx="10.33" ry="10.33"/>
    <rect class="cls-1" x="214.6" y="394.74" width="21.63" height="21.5" rx="10.33" ry="10.33"/>
    <rect class="cls-1" x="257.19" y="308.22" width="21.63" height="43.13" rx="10.81" ry="10.81"/>
    <rect class="cls-1" x="257.19" y="329.85" width="21.63" height="21.5" rx="10.33" ry="10.33"/>
    <rect class="cls-1" x="235.92" y="351.48" width="21.63" height="43.13" rx="10.81" ry="10.81"/>
    <rect class="cls-1" x="235.92" y="373.11" width="21.63" height="21.5" rx="10.33" ry="10.33"/>
    <rect class="cls-1" x="192.91" y="416.37" width="21.63" height="43.13" rx="10.81" ry="10.81"/>
    <rect class="cls-1" x="192.91" y="437.99" width="21.63" height="21.5" rx="10.33" ry="10.33"/>
    <rect class="cls-1" x="171.41" y="459.62" width="21.63" height="21.5" rx="10.33" ry="10.33"/>
    <rect class="cls-1" x="149.9" y="481.25" width="21.63" height="21.5" rx="10.33" ry="10.33"/>
    <rect class="cls-1" x="278.81" y="351.48" width="21.63" height="21.5" rx="10.33" ry="10.33"/>
    <rect class="cls-1" x="128.03" y="502.88" width="21.63" height="21.5" rx="10.33" ry="10.33"/>
    <rect class="cls-1" x="321.47" y="264.97" width="21.63" height="21.5" rx="10.33" ry="10.33"/>
    <rect class="cls-1" x="300.43" y="264.97" width="42.66" height="21.5" rx="10.75" ry="10.75"/>
    <rect class="cls-1" x="300.08" y="329.85" width="42.66" height="21.5" rx="10.75" ry="10.75"/>
    <rect class="cls-1" x="300.08" y="329.85" width="21.63" height="21.5" rx="10.33" ry="10.33"/>
    <rect class="cls-1" x="342.74" y="350" width="42.66" height="21.5" rx="10.75" ry="10.75"/>
    <rect class="cls-1" x="342.74" y="350" width="21.63" height="21.5" rx="10.33" ry="10.33"/>
    <rect class="cls-1" x="385.28" y="264.97" width="21.63" height="21.5" rx="10.33" ry="10.33"/>
    <rect class="cls-1" x="364.24" y="264.97" width="42.66" height="21.5" rx="10.75" ry="10.75"/>
    <rect class="cls-1" x="342.97" y="244.4" width="21.63" height="21.5" rx="10.33" ry="10.33"/>
    <rect class="cls-1" x="407.01" y="243.34" width="21.63" height="21.5" rx="10.33" ry="10.33"/>
    <rect class="cls-1" x="428.75" y="221.39" width="21.63" height="21.5" rx="10.33" ry="10.33"/>
    <rect class="cls-1" x="449.78" y="263.17" width="21.63" height="21.5" rx="10.33" ry="10.33"/>
    <rect class="cls-1" x="449.78" y="241.54" width="21.63" height="43.13" rx="10.81" ry="10.81"/>
    <rect class="cls-1" x="428.75" y="284.8" width="21.63" height="21.5" rx="10.33" ry="10.33"/>
    <rect class="cls-1" x="385.39" y="328.37" width="21.63" height="21.5" rx="10.33" ry="10.33"/>
    <rect class="cls-1" x="407.13" y="306.43" width="21.63" height="21.5" rx="10.33" ry="10.33"/>
    <rect class="cls-1" x="128.09" y="135.79" width="43.25" height="21.5" rx="10.75" ry="10.75"/>
    <rect class="cls-1" x="106.47" y="157.29" width="21.63" height="21.5" rx="10.33" ry="10.33"/>
    <rect class="cls-1" x="300.45" y="114.19" width="21.63" height="21.5" rx="10.33" ry="10.33"/>
    <path class="cls-1" d="M268.25,199.83s9.24-.84,10.76-8.7c1.51-7.86,10.54,6.76,10.54,6.76,0,0-10.2,6.22-10.97,12.27-.76,6.05-10.33-10.33-10.33-10.33Z"/>
    <path class="cls-1" d="M310.66,178.62s9.24-.84,10.76-8.7c1.51-7.86,10.54,6.76,10.54,6.76,0,0-10.2,6.22-10.97,12.27-.76,6.05-10.33-10.33-10.33-10.33Z"/>
    <path class="cls-1" d="M278.49,82.55s-.84-9.24-8.7-10.76c-7.86-1.51,6.76-10.54,6.76-10.54,0,0,6.22,10.2,12.27,10.97,6.05.76-10.33,10.33-10.33,10.33Z"/>
    <path class="cls-1" d="M128.41,145.81s-1.33-9.19-9.26-10.28c-7.93-1.09,6.2-10.89,6.2-10.89,0,0,6.75,9.86,12.84,10.3,6.08.44-9.77,10.87-9.77,10.87Z"/>
    <path class="cls-1" d="M117.79,307.9s9.24-.84,10.76-8.7c1.51-7.86,10.54,6.76,10.54,6.76,0,0-10.2,6.22-10.97,12.27-.76,6.05-10.33-10.33-10.33-10.33Z"/>
    <path class="cls-1" d="M75.44,286.14s9.24-.84,10.76-8.7c1.51-7.86,10.54,6.76,10.54,6.76,0,0-10.2,6.22-10.97,12.27s-10.33-10.33-10.33-10.33Z"/>
    <path class="cls-1" d="M289.49,352.78s9.24-.84,10.76-8.7c1.51-7.86,10.54,6.76,10.54,6.76,0,0-10.2,6.22-10.97,12.27-.76,6.05-10.33-10.33-10.33-10.33Z"/>
    <path class="cls-1" d="M439.73,284.48s9.24-.84,10.76-8.7c1.51-7.86,10.54,6.76,10.54,6.76,0,0-10.2,6.22-10.97,12.27-.76,6.05-10.33-10.33-10.33-10.33Z"/>
    <path class="cls-1" d="M268.2,307.9s-9.24-.84-10.76-8.7c-1.51-7.86-10.54,6.76-10.54,6.76,0,0,10.2,6.22,10.97,12.27.76,6.05,10.33-10.33,10.33-10.33Z"/>
    <path class="cls-1" d="M182.15,265.74s9.24-.84,10.76-8.7c1.51-7.86,10.54,6.76,10.54,6.76,0,0-10.2,6.22-10.97,12.27-.76,6.05-10.33-10.33-10.33-10.33Z"/>
    <path class="cls-1" d="M117.11,92.3s-9.24-.84-10.76-8.7c-1.51-7.86-10.54,6.76-10.54,6.76,0,0,10.2,6.22,10.97,12.27.76,6.05,10.33-10.33,10.33-10.33Z"/>
    <path class="cls-1" d="M203.95,415.91s9.24-.84,10.76-8.7c1.51-7.86,10.54,6.76,10.54,6.76,0,0-10.2,6.22-10.97,12.27-.76,6.05-10.33-10.33-10.33-10.33Z"/>
    <path class="cls-1" d="M396.25,265.74s9.24-.84,10.76-8.7c1.51-7.86,10.54,6.76,10.54,6.76,0,0-10.2,6.22-10.97,12.27-.76,6.05-10.33-10.33-10.33-10.33Z"/>
    <path class="cls-1" d="M160.88,481.66s9.24-.84,10.76-8.7c1.51-7.86,10.54,6.76,10.54,6.76,0,0-10.2,6.22-10.97,12.27-.76,6.05-10.33-10.33-10.33-10.33Z"/>
    <path class="cls-1" d="M10.98,177.5s9.24-.84,10.76-8.7c1.51-7.86,10.54,6.76,10.54,6.76,0,0-10.2,6.22-10.97,12.27s-10.33-10.33-10.33-10.33Z"/>
    <path class="cls-1" d="M160.31,28.57s-9.24-.84-10.76-8.7c-1.51-7.86-10.54,6.76-10.54,6.76,0,0,10.2,6.22,10.97,12.27.76,6.05,10.33-10.33,10.33-10.33Z"/>
    <path class="cls-1" d="M224.92,178.62s9.24-.84,10.76-8.7c1.51-7.86,10.54,6.76,10.54,6.76,0,0-10.2,6.22-10.97,12.27s-10.33-10.33-10.33-10.33Z"/>
    <path class="cls-1" d="M203.73,200.13s-9.24-.84-10.76-8.7c-1.51-7.86-10.54,6.76-10.54,6.76,0,0,10.2,6.22,10.97,12.27.76,6.05,10.33-10.33,10.33-10.33Z"/>
    <path class="cls-1" d="M53.37,222.69s-9.24-.84-10.76-8.7c-1.51-7.86-10.54,6.76-10.54,6.76,0,0,10.2,6.22,10.97,12.27.76,6.05,10.33-10.33,10.33-10.33Z"/>
    <path class="cls-1" d="M160.42,244.53s-9.24-.84-10.76-8.7c-1.51-7.86-10.54,6.76-10.54,6.76,0,0,10.2,6.22,10.97,12.27.76,6.05,10.33-10.33,10.33-10.33Z"/>
    <path class="cls-1" d="M117.65,157.63s-9.24-.84-10.76-8.7c-1.51-7.86-10.54,6.76-10.54,6.76,0,0,10.2,6.22,10.97,12.27.76,6.05,10.33-10.33,10.33-10.33Z"/>
    <path class="cls-1" d="M289.86,286.27s9.24-.84,10.76-8.7c1.51-7.86,10.54,6.76,10.54,6.76,0,0-10.2,6.22-10.97,12.27-.76,6.05-10.33-10.33-10.33-10.33Z"/>
  </g>
  <g>
    <rect class="cls-2" x="200.66" y="18.15" width="21.63" height="21.5" rx="10.33" ry="10.33"/>
    <rect class="cls-2" x="55.51" y="90.58" width="21.63" height="21.5" rx="10.33" ry="10.33"/>
    <rect class="cls-2" x="0" y="54.91" width="21.63" height="21.5" rx="10.33" ry="10.33"/>
    <rect class="cls-2" x="289.7" y="0" width="21.63" height="21.5" rx="10.33" ry="10.33"/>
    <rect class="cls-2" x="316.56" y="12.27" width="21.63" height="42.54" rx="10.81" ry="10.81" transform="translate(27.09 168.18) rotate(-30)"/>
    <rect class="cls-2" x="468.31" y="74.78" width="21.63" height="21.5" rx="10.33" ry="10.33"/>
    <rect class="cls-2" x="431.34" y="61.5" width="21.63" height="42.54" rx="10.81" ry="10.81" transform="translate(476.38 531.3) rotate(-104.97)"/>
    <rect class="cls-2" x="477.77" y="103.59" width="21.63" height="42.54" rx="10.81" ry="10.81" transform="translate(46.13 -117.08) rotate(14.34)"/>
    <rect class="cls-2" x="465.51" y="151.56" width="21.63" height="42.54" rx="10.81" ry="10.81" transform="translate(57.62 -112.56) rotate(14.34)"/>
    <rect class="cls-2" x="549.98" y="257.36" width="21.63" height="21.5" rx="10.33" ry="10.33" transform="translate(347.05 -315.57) rotate(44.34)"/>
    <rect class="cls-2" x="525.46" y="219.02" width="21.63" height="42.54" rx="10.81" ry="10.81" transform="translate(63.86 589.8) rotate(-60.63)"/>
    <rect class="cls-2" x="478.67" y="299.34" width="21.63" height="42.54" rx="10.81" ry="10.81" transform="translate(513.8 -264.02) rotate(59.16)"/>
    <rect class="cls-2" x="471.42" y="436.98" width="21.63" height="21.5" rx="10.33" ry="10.33" transform="translate(922.83 -41.03) rotate(89.16)"/>
    <rect class="cls-2" x="473.64" y="389.46" width="21.63" height="42.54" rx="10.81" ry="10.81" transform="translate(-93.57 147.52) rotate(-15.81)"/>
    <rect class="cls-2" x="460.15" y="341.82" width="21.63" height="42.54" rx="10.81" ry="10.81" transform="translate(-81.11 142.05) rotate(-15.81)"/>
    <rect class="cls-2" x="293" y="511.64" width="21.63" height="21.5" rx="10.33" ry="10.33" transform="translate(883.82 692.06) rotate(136.49)"/>
    <rect class="cls-2" x="321.72" y="477.67" width="21.63" height="42.54" rx="10.81" ry="10.81" transform="translate(309.92 -100.23) rotate(31.52)"/>
    <rect class="cls-2" x="347.6" y="435.47" width="21.63" height="42.54" rx="10.81" ry="10.81" transform="translate(291.67 -119.99) rotate(31.52)"/>
    <rect class="cls-2" x="104.31" y="439.75" width="21.63" height="21.5" rx="10.33" ry="10.33" transform="translate(-99.45 863.02) rotate(-138.19)"/>
    <rect class="cls-2" x="99.48" y="394.34" width="21.63" height="42.54" rx="10.81" ry="10.81" transform="translate(133.16 845) rotate(-168.19)"/>
    <rect class="cls-2" x="132.01" y="442.03" width="21.63" height="21.5" rx="10.33" ry="10.33" transform="translate(-52.6 885.46) rotate(-138.19)"/>
    <rect class="cls-2" x="105.92" y="362.36" width="21.63" height="21.5" rx="10.33" ry="10.33" transform="translate(-45.02 729.02) rotate(-138.19)"/>
    <rect class="cls-2" x="392.24" y="431.06" width="21.63" height="21.5" rx="10.33" ry="10.33"/>
    <rect class="cls-2" x="392.24" y="81.75" width="21.63" height="21.5" rx="10.33" ry="10.33"/>
    <rect class="cls-2" x="487.09" y="212.2" width="21.63" height="21.5" rx="10.33" ry="10.33" transform="translate(44.23 -80.02) rotate(9.61)"/>
    <rect class="cls-2" x="241.01" y="459.88" width="21.63" height="21.5" rx="10.33" ry="10.33"/>
    <path class="cls-2" d="M408.73,83.56s8.33,4.09,13.72-1.83c5.38-5.92,5.48,11.27,5.48,11.27,0,0-11.95,0-15.75,4.77-3.8,4.77-3.44-14.21-3.44-14.21Z"/>
    <path class="cls-2" d="M481.28,110.11s2.5-8.94-4.31-13.15c-6.81-4.21,10.07-7.45,10.07-7.45,0,0,2.19,11.75,7.57,14.61,5.39,2.86-13.33,5.99-13.33,5.99Z"/>
    <path class="cls-2" d="M518.71,238.41s-4.6-8.06-12.38-6.19c-7.78,1.88,1.79-12.4,1.79-12.4,0,0,9.89,6.71,15.71,4.9,5.82-1.81-5.13,13.69-5.13,13.69Z"/>
    <path class="cls-2" d="M477.6,443.27s6.79-6.33,3.18-13.47c-3.61-7.14,12.48-1.1,12.48-1.1,0,0-4.26,11.17-1.16,16.42,3.1,5.25-14.5-1.85-14.5-1.85Z"/>
    <rect class="cls-2" x="518.43" y="286.12" width="21.63" height="21.5" rx="10.33" ry="10.33" transform="translate(358.17 -285.33) rotate(44.34)"/>
    <rect class="cls-2" x="421.96" y="439.36" width="21.63" height="21.5" rx="10.33" ry="10.33" transform="translate(437.79 -174.28) rotate(44.34)"/>
    <path class="cls-2" d="M424.07,454.49s-5.35-7.58-12.92-4.97c-7.56,2.62.59-12.51.59-12.51,0,0,10.49,5.73,16.11,3.36,5.62-2.37-3.78,14.12-3.78,14.12Z"/>
    <path class="cls-2" d="M294.02,522.95s-.84-9.24-8.7-10.76c-7.86-1.51,6.76-10.54,6.76-10.54,0,0,6.22,10.2,12.27,10.97,6.05.76-10.33,10.33-10.33,10.33Z"/>
    <rect class="cls-2" x="272.18" y="490.9" width="21.63" height="21.5" rx="10.33" ry="10.33"/>
    <path class="cls-2" d="M135.27,459.21s-6.39-6.74-13.5-3.06c-7.11,3.68-1.22-12.47-1.22-12.47,0,0,11.2,4.16,16.43,1.01,5.22-3.15-1.71,14.51-1.71,14.51Z"/>
    <rect class="cls-2" x="341.31" y="65.66" width="21.63" height="21.5" rx="10.33" ry="10.33"/>
  </g>
</svg>